HIERARCHY
ROOT Pelvis
{
	OFFSET 0.000000 0.000000 0.000000
	CHANNELS 6 Xposition Yposition Zposition Xrotation Yrotation Zrotation
	JOINT LeftUpLeg_virtual
	{
		OFFSET 0.000000 0.000000 0.000000
		CHANNELS 3 Xrotation Yrotation Zrotation
		JOINT LeftUpLeg
		{
			OFFSET 8.479700 -4.795502 -0.379100
			CHANNELS 3 Xrotation Yrotation Zrotation
			JOINT LeftLeg
			{
				OFFSET 0.024144 -32.555107 0.112900
				CHANNELS 3 Xrotation Yrotation Zrotation
				JOINT LeftFoot
				{
					OFFSET -0.024144 -32.638630 -3.012600
					CHANNELS 3 Xrotation Yrotation Zrotation
					JOINT LeftToeBase
					{
						OFFSET 0.970200 -13.225400 11.864200
						CHANNELS 3 Xrotation Yrotation Zrotation
						End Site
						{
							OFFSET 0 0 0
						}
					}
				}
			}
		}
	}
	JOINT RightUpLeg_virtual
	{
		OFFSET 0.000000 0.000000 0.000000
		CHANNELS 3 Xrotation Yrotation Zrotation
		JOINT RightUpLeg
		{
			OFFSET -8.479700 -4.795502 -0.379100
			CHANNELS 3 Xrotation Yrotation Zrotation
			JOINT RightLeg
			{
				OFFSET -0.023144 -32.555092 0.112900
				CHANNELS 3 Xrotation Yrotation Zrotation
				JOINT RightFoot
				{
					OFFSET 0.023144 -32.638641 -3.012700
					CHANNELS 3 Xrotation Yrotation Zrotation
					JOINT RightToeBase
					{
						OFFSET -0.970200 -13.225400 11.864200
						CHANNELS 3 Xrotation Yrotation Zrotation
						End Site
						{
							OFFSET 0 0 0
						}
					}
				}
			}
		}
	}
	JOINT Hips_virtual
	{
		OFFSET 0.000000 0.000000 0.000000
		CHANNELS 3 Xrotation Yrotation Zrotation
		JOINT Hips
		{
			OFFSET -0.000000 -0.000000 -0.000000
			CHANNELS 3 Xrotation Yrotation Zrotation
			JOINT Spine
			{
				OFFSET 0.000000 7.722000 1.166200
				CHANNELS 3 Xrotation Yrotation Zrotation
				JOINT Spine1
				{
					OFFSET 0.000000 12.024101 0.248800
					CHANNELS 3 Xrotation Yrotation Zrotation
					JOINT Spine2
					{
						OFFSET 0.000000 11.502998 -0.491200
						CHANNELS 3 Xrotation Yrotation Zrotation
						JOINT Neck_virtual
						{
							OFFSET 0.000000 0.000000 0.000000
							CHANNELS 3 Xrotation Yrotation Zrotation
							JOINT Neck
							{
								OFFSET 0.000000 18.430702 -3.123100
								CHANNELS 3 Xrotation Yrotation Zrotation
								JOINT Head
								{
									OFFSET 0.000000 9.051102 1.034000
									CHANNELS 3 Xrotation Yrotation Zrotation
									End Site
									{
										OFFSET 0 0 0
									}
								}
							}
						}
						JOINT LeftShoulder_virtual
						{
							OFFSET 0.000000 0.000000 0.000000
							CHANNELS 3 Xrotation Yrotation Zrotation
							JOINT LeftShoulder
							{
								OFFSET 6.197800 13.665199 -4.064700
								CHANNELS 3 Xrotation Yrotation Zrotation
								JOINT LeftArm
								{
									OFFSET 7.778100 -0.187103 -1.709300
									CHANNELS 3 Xrotation Yrotation Zrotation
									JOINT LeftForeArm
									{
										OFFSET 22.049376 0.000000 0.000000
										CHANNELS 3 Xrotation Yrotation Zrotation
										JOINT LeftHand
										{
											OFFSET 23.009392 0.000000 0.000000
											CHANNELS 3 Xrotation Yrotation Zrotation
											End Site
											{
												OFFSET 0 0 0
											}
										}
									}
								}
							}
						}
						JOINT RightShoulder_virtual
						{
							OFFSET 0.000000 0.000000 0.000000
							CHANNELS 3 Xrotation Yrotation Zrotation
							JOINT RightShoulder
							{
								OFFSET -6.197800 13.665199 -4.064700
								CHANNELS 3 Xrotation Yrotation Zrotation
								JOINT RightArm
								{
									OFFSET -7.778100 -0.187103 -1.709300
									CHANNELS 3 Xrotation Yrotation Zrotation
									JOINT RightForeArm
									{
										OFFSET -22.049376 0.000000 0.000000
										CHANNELS 3 Xrotation Yrotation Zrotation
										JOINT RightHand
										{
											OFFSET -23.009392 0.000000 0.000000
											CHANNELS 3 Xrotation Yrotation Zrotation
											End Site
											{
												OFFSET 0 0 0
											}
										}
									}
								}
							}
						}
					}
				}
			}
		}
	}
}
MOTION
Frames: 11
Frame Time: 0.03333333
-0.051680 82.089729 0.282221 0.000000 0.000000 0.000000 -4.120342 -1.670941 0.469320 -5.156182 8.156471 5.256034 14.596568 9.631119 1.406957 -4.347364 4.720256 -6.675342 0.000000 0.000000 0.000000 -4.120342 -1.670941 0.469320 -3.574755 -9.274955 -6.927429 16.185158 -9.518155 1.242879 -7.283493 -4.530817 4.985428 0.000000 0.000000 0.000000 -4.120342 -1.670941 0.469320 0.000000 0.000000 0.000000 3.457840 1.701077 -2.325598 0.710881 0.526839 -0.263052 0.000000 0.000000 0.000000 0.710199 0.523097 -0.267070 2.609733 -0.754816 0.156819 0.000000 0.000000 0.000000 0.710199 0.523097 -0.267070 2.730607 -4.471829 -12.384154 -6.603775 -10.273119 -60.669169 -0.000003 -16.775189 -0.000016 0.000000 0.000000 0.000000 0.710199 0.523097 -0.267070 1.996585 1.476376 14.937830 -2.025622 7.814280 63.299953 -0.000004 12.108130 0.000022 0.000000 0.000000 0.000000 
-0.150818 82.041962 0.071312 0.000000 0.000000 0.000000 -4.300249 -1.294567 0.565805 -5.489841 8.094252 5.298570 15.186615 9.626578 1.400767 -4.641067 4.361657 -6.714180 0.000000 0.000000 0.000000 -4.300249 -1.294567 0.565805 -3.822856 -9.137994 -6.846120 16.854503 -9.549035 1.078339 -7.523826 -5.015875 4.987823 0.000000 0.000000 0.000000 -4.300249 -1.294567 0.565805 0.000000 0.000000 0.000000 3.647041 1.890295 -2.275602 0.742683 0.579923 -0.240280 0.000000 0.000000 0.000000 0.742192 0.575776 -0.244851 2.557503 -0.815733 0.156847 0.000000 0.000000 0.000000 0.742192 0.575776 -0.244851 2.723279 -4.477275 -12.342100 -6.439324 -9.530075 -60.740012 -0.000001 -16.130153 0.000002 0.000000 0.000000 0.000000 0.742192 0.575776 -0.244851 1.997862 1.678048 14.926608 -2.716033 8.083338 63.101980 0.000001 12.576849 -0.000019 0.000000 0.000000 0.000000 
-0.240606 82.002983 -0.131029 0.000000 0.000000 0.000000 -4.505276 -0.958222 0.650831 -5.733419 8.030625 5.326767 15.674649 9.623045 1.406018 -4.888243 4.035964 -6.744371 0.000000 0.000000 0.000000 -4.505276 -0.958222 0.650831 -3.985021 -9.050055 -6.784637 17.398208 -9.574505 0.957215 -7.702640 -5.420153 4.974455 0.000000 0.000000 0.000000 -4.505276 -0.958222 0.650831 0.000000 0.000000 0.000000 3.851734 2.093423 -2.216262 0.779252 0.636650 -0.214313 0.000000 0.000000 0.000000 0.779022 0.632010 -0.219523 2.504435 -0.875463 0.156874 0.000000 0.000000 0.000000 0.779022 0.632010 -0.219523 2.725929 -4.533559 -12.333781 -6.245855 -8.768366 -60.756582 -0.000004 -15.406547 -0.000003 0.000000 0.000000 0.000000 0.779022 0.632010 -0.219523 1.997979 1.881702 14.910779 -3.306483 8.365062 62.900735 0.000000 13.174784 -0.000011 0.000000 0.000000 0.000000 
-0.323200 81.971344 -0.323606 0.000000 0.000000 0.000000 -4.717196 -0.629626 0.721898 -5.925785 7.968161 5.353306 16.089431 9.620263 1.421009 -5.102559 3.707823 -6.768282 0.000000 0.000000 0.000000 -4.717196 -0.629626 0.721898 -4.080571 -9.014856 -6.742081 17.835463 -9.591392 0.889914 -7.835529 -5.769722 4.935772 0.000000 0.000000 0.000000 -4.717196 -0.629626 0.721898 0.000000 0.000000 0.000000 4.047074 2.282755 -2.140305 0.816892 0.688821 -0.187654 0.000000 0.000000 0.000000 0.816969 0.683691 -0.193516 2.454511 -0.931647 0.156904 0.000000 0.000000 0.000000 0.816969 0.683691 -0.193516 2.731424 -4.597783 -12.332032 -6.033515 -7.976577 -60.769224 0.000011 -14.615929 0.000012 0.000000 0.000000 0.000000 0.816969 0.683691 -0.193516 2.000277 2.088531 14.902334 -3.800157 8.674481 62.681131 -0.000001 13.889307 0.000005 0.000000 0.000000 0.000000 
-0.400843 81.944656 -0.505548 0.000000 0.000000 0.000000 -4.918726 -0.282322 0.785533 -6.101863 7.908049 5.382217 16.459663 9.617921 1.436803 -5.302471 3.365964 -6.789543 0.000000 0.000000 0.000000 -4.918726 -0.282322 0.785533 -4.139052 -9.014535 -6.710088 18.201235 -9.602805 0.858071 -7.942847 -6.106333 4.879726 0.000000 0.000000 0.000000 -4.918726 -0.282322 0.785533 0.000000 0.000000 0.000000 4.213557 2.439379 -2.054545 0.853396 0.731221 -0.162389 0.000000 0.000000 0.000000 0.853783 0.725644 -0.168855 2.408679 -0.981840 0.156932 0.000000 0.000000 0.000000 0.853783 0.725644 -0.168855 2.733644 -4.642484 -12.331566 -5.812745 -7.144132 -60.813648 -0.000001 -13.796086 -0.000014 0.000000 0.000000 0.000000 0.853783 0.725644 -0.168855 2.006186 2.285588 14.907446 -4.196582 9.036012 62.436535 0.000007 14.723552 -0.000015 0.000000 0.000000 0.000000 
-0.475042 81.922478 -0.676151 0.000000 0.000000 0.000000 -5.105067 0.097486 0.852927 -6.267058 7.849922 5.406412 16.783433 9.615960 1.446990 -5.486113 3.009379 -6.802322 0.000000 0.000000 0.000000 -5.105067 0.097486 0.852927 -4.170819 -9.029017 -6.681313 18.510557 -9.612686 0.835753 -8.034750 -6.462783 4.821773 0.000000 0.000000 0.000000 -5.105067 0.097486 0.852927 -0.000001 0.000000 0.000000 4.346868 2.561754 -1.976507 0.888733 0.764050 -0.138985 0.000000 0.000000 0.000000 0.889419 0.758037 -0.145994 2.367452 -1.025846 0.156960 0.000000 0.000000 0.000000 0.889419 0.758037 -0.145994 2.735174 -4.675173 -12.326568 -5.571915 -6.283270 -60.870468 -0.000004 -12.982572 -0.000005 0.000000 0.000000 0.000000 0.889419 0.758037 -0.145994 2.014541 2.451925 14.923613 -4.495738 9.460789 62.173744 -0.000007 15.675955 0.000027 0.000000 0.000000 0.000000 
-0.547083 81.904160 -0.835688 0.000000 0.000000 0.000000 -5.283338 0.508908 0.932470 -6.410363 7.793718 5.419151 17.051448 9.614325 1.448739 -5.642062 2.631737 -6.805436 0.000000 0.000000 0.000000 -5.283338 0.508908 0.932470 -4.182262 -9.045661 -6.652795 18.790947 -9.624586 0.805410 -8.136477 -6.847897 4.768887 0.000000 0.000000 0.000000 -5.283338 0.508908 0.932470 0.000000 0.000000 0.000000 4.456472 2.660168 -1.921972 0.923715 0.790730 -0.117402 0.000000 0.000000 0.000000 0.924696 0.784239 -0.124909 2.332533 -1.065886 0.161658 0.000000 0.000000 0.000000 0.924696 0.784239 -0.124909 2.737248 -4.718405 -12.320233 -5.287585 -5.423515 -60.921019 -0.000001 -12.198457 0.000001 0.000000 0.000000 0.000000 0.924696 0.784239 -0.124909 2.023491 2.578337 14.945048 -4.714587 9.925525 61.913144 -0.000002 16.716311 0.000022 0.000000 0.000000 0.000000 
-0.617514 81.887589 -0.985197 0.000000 0.000000 0.000000 -5.463500 0.940710 1.021437 -6.533905 7.739076 5.424607 17.292091 9.612899 1.443295 -5.793060 2.228681 -6.803509 0.000000 0.000000 0.000000 -5.463500 0.940710 1.021437 -4.178546 -9.060186 -6.621701 19.074005 -9.639090 0.765515 -8.276964 -7.249587 4.723813 0.000000 0.000000 0.000000 -5.463500 0.940710 1.021437 0.000000 0.000000 0.000000 4.554836 2.747935 -1.891795 0.958366 0.815093 -0.096728 0.000000 0.000000 0.000000 0.959648 0.808061 -0.104718 2.305999 -1.104626 0.168680 0.000000 0.000000 0.000000 0.959648 0.808061 -0.104718 2.739987 -4.785490 -12.307762 -4.943008 -4.581990 -60.965230 0.000002 -11.466667 0.000017 0.000000 0.000000 0.000000 0.959648 0.808061 -0.104718 2.031698 2.670931 14.966532 -4.884387 10.386351 61.676991 0.000000 17.790735 0.000013 0.000000 0.000000 0.000000 
-0.685886 81.869812 -1.125252 0.000000 0.000000 0.000000 -5.651518 1.378793 1.108329 -6.656376 7.687007 5.436293 17.567301 9.611618 1.436926 -5.997299 1.806689 -6.805314 0.000000 0.000000 0.000000 -5.651518 1.378793 1.108329 -4.163215 -9.071971 -6.583659 19.381389 -9.654456 0.722889 -8.475058 -7.650187 4.686311 0.000000 0.000000 0.000000 -5.651518 1.378793 1.108329 0.000000 0.000000 0.000000 4.649329 2.835031 -1.873083 0.992002 0.839698 -0.075052 0.000000 0.000000 0.000000 0.993615 0.832067 -0.083521 2.288248 -1.143352 0.176764 0.000000 0.000000 0.000000 0.993615 0.832067 -0.083521 2.742450 -4.872850 -12.285452 -4.548080 -3.749253 -61.020008 -0.000002 -10.805860 -0.000018 0.000000 0.000000 0.000000 0.993615 0.832067 -0.083521 2.038431 2.739620 14.984679 -5.032147 10.813846 61.476094 0.000004 18.846114 -0.000037 0.000000 0.000000 0.000000 
-0.751377 81.849426 -1.256071 0.000000 0.000000 0.000000 -5.847334 1.811266 1.184469 -6.791628 7.640157 5.463700 17.910709 9.610413 1.429956 -6.286442 1.383404 -6.816398 0.000000 0.000000 0.000000 -5.847334 1.811266 1.184469 -4.134073 -9.078278 -6.530709 19.702376 -9.671516 0.678820 -8.712223 -8.040678 4.650180 0.000000 0.000000 0.000000 -5.847334 1.811266 1.184469 0.000000 0.000000 0.000000 4.740861 2.924943 -1.852647 1.023620 0.865233 -0.051170 0.000000 0.000000 0.000000 1.025608 0.856965 -0.060111 2.278048 -1.181811 0.184392 0.000000 0.000000 0.000000 1.025608 0.856965 -0.060111 2.743697 -4.963711 -12.255040 -4.118806 -2.918505 -61.094615 -0.000002 -10.224003 -0.000032 0.000000 0.000000 0.000000 1.025608 0.856965 -0.060111 2.043687 2.794503 14.998696 -5.167015 11.208650 61.305825 0.000006 19.850487 -0.000010 0.000000 0.000000 0.000000 
-0.812884 81.827568 -1.378315 0.000000 0.000000 0.000000 -6.046734 2.225960 1.252821 -6.931130 7.598258 5.498275 18.298732 9.611970 1.422981 -6.638479 0.986895 -6.835598 0.000000 0.000000 0.000000 -6.046734 2.225960 1.252821 -4.092661 -9.078775 -6.467929 20.012999 -9.689463 0.630231 -8.945279 -8.416684 4.619094 0.000000 0.000000 0.000000 -6.046734 2.225960 1.252821 -0.000001 0.000000 0.000000 4.827074 3.017297 -1.827990 1.052155 0.891349 -0.027667 0.000000 0.000000 0.000000 1.054530 0.882471 -0.037071 2.273632 -1.219476 0.192163 0.000000 0.000000 0.000000 1.054530 0.882471 -0.037071 2.741632 -5.033696 -12.215043 -3.657236 -2.104775 -61.186781 0.000001 -9.722043 0.000004 0.000000 0.000000 0.000000 1.054530 0.882471 -0.037071 2.049374 2.848674 15.014228 -5.285018 11.591774 61.149413 0.000000 20.793471 0.000010 0.000000 0.000000 0.000000 
